C:\Users\r0593348\3dpredictsim\Results\batch_windlass\Pog_s1_tmt_bCst_d05_k800_WL40_ig24_act_TTC_GRF.mot
nRows=15
nColumns=19

name C:\Users\r0593348\3dpredictsim\Results\batch_windlass\Pog_s1_tmt_bCst_d05_k800_WL40_ig24_act_TTC_GRF.mot
datacolumns 19
datarows 15
range 0.6037045589 0.7727418354
endheader
time 	ground_force_vx	ground_force_vy	ground_force_vz	ground_force_px	ground_force_py	ground_force_pz	1_ground_force_vx	1_ground_force_vy	1_ground_force_vz	1_ground_force_px	1_ground_force_py	1_ground_force_pz	ground_torque_x	ground_torque_y	ground_torque_z	1_ground_torque_x	1_ground_torque_y	1_ground_torque_z
        0.6037045589	       83.4643950122	      390.4747695880	        2.0508919033	        0.4037454014	        0.0000000000	        0.0351536822	      -52.1440172752	       36.2717065023	       -8.6322495198	        0.9280521948	        0.0000000000	       -0.0553873946	        0.0000000000	        0.0000000000	        0.0000000000	        0.0000000000	        0.0000000000	        0.0000000000	
        0.6157786501	       53.3475570595	      294.0420750411	       10.1041332896	        0.4121230824	        0.0000000000	        0.0312579157	     -117.0392585572	       99.4857903893	      -24.4858243096	        0.9398225774	        0.0000000000	       -0.0534250507	        0.0000000000	        0.0000000000	        0.0000000000	        0.0000000000	        0.0000000000	        0.0000000000	
        0.6278527412	       34.7958655273	      215.6865740840	       15.1426149732	        0.4215830899	        0.0000000000	        0.0263155245	     -109.8148261766	      241.3030596485	      -33.3797174466	        0.9486858129	        0.0000000000	       -0.0524207092	        0.0000000000	        0.0000000000	        0.0000000000	        0.0000000000	        0.0000000000	        0.0000000000	
        0.6399268324	       23.1329074024	      168.1148552458	       13.9588108093	        0.4241582703	        0.0000000000	        0.0246801678	      -73.0424011101	      499.8073610250	        2.5999926106	        0.9577027270	        0.0000000000	       -0.0530190600	        0.0000000000	        0.0000000000	        0.0000000000	        0.0000000000	        0.0000000000	        0.0000000000	
        0.6520009236	       16.6708045703	      112.7639238895	       11.1462216295	        0.4245125356	        0.0000000000	        0.0246488045	     -109.0770739187	      772.8765069779	       19.3596401145	        0.9688237324	        0.0000000000	       -0.0554382279	        0.0000000000	        0.0000000000	        0.0000000000	        0.0000000000	        0.0000000000	        0.0000000000	
        0.6640750148	       -7.2279068899	       52.1031176681	        7.3219652488	        0.4224709946	        0.0000000000	        0.0247398552	     -138.8140113959	      897.8364902806	       25.6074493989	        0.9753640682	        0.0000000000	       -0.0567481681	        0.0000000000	        0.0000000000	        0.0000000000	        0.0000000000	        0.0000000000	        0.0000000000	
        0.6761491059	       -5.2700677826	        5.2420027975	       -0.3831138935	        0.0000000000	        0.0000000000	        0.0000000000	     -141.5275541320	      916.3522385265	       26.8633683832	        0.9809928215	        0.0000000000	       -0.0573826100	        0.0000000000	        0.0000000000	        0.0000000000	        0.0000000000	        0.0000000000	        0.0000000000	
        0.6882231971	       -2.7624828536	        2.2749449245	       -0.3243082449	        0.0000000000	        0.0000000000	        0.0000000000	     -136.5146535356	      884.8368773977	       23.8358704092	        0.9868228974	        0.0000000000	       -0.0574236554	        0.0000000000	        0.0000000000	        0.0000000000	        0.0000000000	        0.0000000000	        0.0000000000	
        0.7002972883	       -0.7488028894	        0.5495760700	       -0.0849352267	        0.0000000000	        0.0000000000	        0.0000000000	     -126.9895919770	      845.2852928973	       20.3274406827	        0.9929149885	        0.0000000000	       -0.0570468692	        0.0000000000	        0.0000000000	        0.0000000000	        0.0000000000	        0.0000000000	        0.0000000000	
        0.7123713795	       -0.0185359304	        0.0123786531	       -0.0018059888	        0.0000000000	        0.0000000000	        0.0000000000	     -112.6588967335	      796.0899604226	       17.9104841751	        0.9988714803	        0.0000000000	       -0.0565535548	        0.0000000000	        0.0000000000	        0.0000000000	        0.0000000000	        0.0000000000	        0.0000000000	
        0.7244454707	       -0.1794811403	        0.1131663626	       -0.0142417067	        0.0000000000	        0.0000000000	        0.0000000000	      -96.9919982644	      749.3510118543	       18.1756563804	        1.0033264274	        0.0000000000	       -0.0561443275	        0.0000000000	        0.0000000000	        0.0000000000	        0.0000000000	        0.0000000000	        0.0000000000	
        0.7365195618	       -0.3497557893	        0.2091149597	       -0.0240644891	        0.0000000000	        0.0000000000	        0.0000000000	      -83.6631239571	      711.3671925274	       19.2453966218	        1.0072296740	        0.0000000000	       -0.0558821490	        0.0000000000	        0.0000000000	        0.0000000000	        0.0000000000	        0.0000000000	        0.0000000000	
        0.7485936530	       -0.2144623329	        0.1203386316	       -0.0145025175	        0.0000000000	        0.0000000000	        0.0000000000	      -71.6586466020	      680.4991380904	       19.7434243487	        1.0107553304	        0.0000000000	       -0.0557378150	        0.0000000000	        0.0000000000	        0.0000000000	        0.0000000000	        0.0000000000	        0.0000000000	
        0.7606677442	       -0.1109780886	        0.0587885620	       -0.0074054053	        0.0000000000	        0.0000000000	        0.0000000000	      -60.5986446923	      654.1912661818	       20.0437535760	        1.0140612258	        0.0000000000	       -0.0556755728	        0.0000000000	        0.0000000000	        0.0000000000	        0.0000000000	        0.0000000000	        0.0000000000	
        0.7727418354	       -0.0633602406	        0.0319475125	       -0.0041802337	        0.0000000000	        0.0000000000	        0.0000000000	      -50.8336361220	      631.8535059218	       20.3431263706	        1.0173192282	        0.0000000000	       -0.0556613044	        0.0000000000	        0.0000000000	        0.0000000000	        0.0000000000	        0.0000000000	        0.0000000000	
